<svg xmlns="http://www.w3.org/2000/svg" xmlns:xlink="http://www.w3.org/1999/xlink" viewBox="0,0,256,256" width="50px" height="50px"><g transform="translate(-39.68,-39.68) scale(1.31,1.31)"><g fill="#5d576b" fill-rule="nonzero" stroke="none" stroke-width="1" stroke-linecap="butt" stroke-linejoin="miter" stroke-miterlimit="10" stroke-dasharray="" stroke-dashoffset="0" font-family="none" font-weight="none" font-size="none" text-anchor="none" style="mix-blend-mode: normal"><g transform="scale(2.56,2.56)"><path d="M48.13477,12.95703c-20.10794,0.099 -34.10355,17.37638 -35.13281,36.9375c-1.06436,20.22287 16.62584,36.08962 36.89649,37.10352c21.17559,1.05878 36.04945,-16.97672 37.09766,-36.89258c1.07838,-20.49445 -16.64586,-36.09062 -36.89648,-37.10352c-0.66113,-0.03306 -1.3162,-0.04812 -1.96484,-0.04492zM48.14844,16.95703c0.57744,-0.00256 1.16113,0.01157 1.75,0.04102c1.08913,0.05448 2.1686,0.15852 3.23633,0.30273l-1.08203,2.26758c-0.15428,0.32239 -0.12483,0.70259 0.07726,0.99737c0.20209,0.29478 0.5461,0.45934 0.90243,0.43168c0.35633,-0.02766 0.67082,-0.24334 0.825,-0.56577l1.33398,-2.79492c1.61333,0.30761 3.19421,0.71231 4.73047,1.21484l-1.91211,2.54883c-0.22785,0.28486 -0.28252,0.67119 -0.14268,1.00809c0.13985,0.3369 0.45203,0.57095 0.81463,0.61072c0.3626,0.03978 0.7181,-0.12102 0.92766,-0.4196l2.27734,-3.03711c1.62035,0.63103 3.18267,1.36851 4.67578,2.20508l-1.68945,3.29297c-0.1747,0.3191 -0.16234,0.70789 0.03227,1.01525c0.1946,0.30736 0.54076,0.48481 0.90392,0.46337c0.36316,-0.02144 0.68603,-0.23839 0.84311,-0.56651l1.63086,-3.17969c1.1608,0.73756 2.27144,1.53699 3.32617,2.39453l-2.23828,3.42188c-0.21127,0.29861 -0.24266,0.68875 -0.08184,1.0173c0.16081,0.32855 0.48817,0.54309 0.8536,0.55943c0.36543,0.01634 0.71063,-0.16814 0.90012,-0.48102l2.0918,-3.19727c1.17977,1.08153 2.2741,2.24098 3.27344,3.4707l-2.11523,2.39844c-0.24853,0.26586 -0.33302,0.64575 -0.2206,0.99189c0.11242,0.34614 0.404,0.60389 0.76132,0.67298c0.35732,0.06909 0.72397,-0.06138 0.95733,-0.34066l1.85547,-2.10352c0.93825,1.32226 1.774,2.71225 2.48633,4.16797l-2.26953,2.57227c-0.23666,0.26793 -0.31237,0.64179 -0.19861,0.98069c0.11377,0.3389 0.39972,0.59135 0.75011,0.66221c0.35039,0.07086 0.71197,-0.05062 0.94849,-0.31868l1.6543,-1.875c1.48047,3.71887 2.21145,7.79185 1.98438,12.10742c-0.9518,18.08414 -14.07793,34.04864 -32.90234,33.10742c-2.07378,-0.10373 -4.11075,-0.38609 -6.09766,-0.81641v-3.18555c0.0037,-0.2703 -0.10218,-0.53059 -0.29351,-0.72155c-0.19133,-0.19097 -0.45182,-0.29634 -0.72212,-0.29212c-0.55152,0.00862 -0.99193,0.46214 -0.98437,1.01367v2.69922c-1.53005,-0.41974 -3.02134,-0.9354 -4.4668,-1.53516l1.35938,-2.7168c0.16492,-0.3182 0.14697,-0.70032 -0.04706,-1.00165c-0.19403,-0.30133 -0.53447,-0.4758 -0.89239,-0.45733c-0.36436,0.01943 -0.68923,0.23576 -0.84766,0.56445l-1.40039,2.79883c-1.4776,-0.70814 -2.89808,-1.50686 -4.25,-2.39258l4.25195,-4.25195c0.29606,-0.28773 0.38489,-0.72782 0.22362,-1.10786c-0.16127,-0.38005 -0.53949,-0.62194 -0.95214,-0.60893c-0.2598,0.00774 -0.50638,0.11632 -0.6875,0.30273l-4.50195,4.50195c-1.10036,-0.81371 -2.14612,-1.68638 -3.13281,-2.61328l2.20117,-3.66797c0.18825,-0.30475 0.19914,-0.68691 0.02855,-1.00189c-0.1706,-0.31498 -0.49662,-0.51466 -0.85472,-0.5235c-0.36561,-0.00932 -0.70715,0.18167 -0.89062,0.49805l-1.94531,3.24414c-0.93437,-0.99227 -1.79591,-2.04187 -2.5918,-3.13477l3.17578,-3.9707c0.25049,-0.30441 0.29879,-0.72757 0.12333,-1.08059c-0.17546,-0.35302 -0.54193,-0.57004 -0.93583,-0.55417c-0.29379,0.01205 -0.56738,0.15278 -0.74805,0.38477l-2.79492,3.49414c-0.66947,-1.06293 -1.26661,-2.16754 -1.79687,-3.30469l3.15234,-3.93945c0.25049,-0.30441 0.29879,-0.72757 0.12333,-1.08059c-0.17546,-0.35302 -0.54193,-0.57004 -0.93583,-0.55417c-0.29379,0.01205 -0.56738,0.15278 -0.74805,0.38477l-2.47266,3.0918c-0.49945,-1.3359 -0.89667,-2.71332 -1.19141,-4.12695l2.89063,-1.44531c0.42075,-0.20352 0.64443,-0.67131 0.53868,-1.12658c-0.10575,-0.45527 -0.51271,-0.77658 -0.98009,-0.77381c-0.15705,0.00117 -0.31161,0.03931 -0.45117,0.11133l-2.35352,1.17578c-0.22147,-1.68409 -0.29792,-3.41182 -0.20508,-5.17578c0.89171,-16.94695 12.08585,-31.56613 28.58594,-33.01758l-1.43945,2.39844c-0.18357,0.30668 -0.18957,0.688 -0.01574,1.0003c0.17383,0.3123 0.50108,0.50813 0.85846,0.51371c0.35738,0.00558 0.69058,-0.17994 0.87408,-0.48667l2.13086,-3.55078c0.05318,-0.00051 0.10492,-0.00562 0.1582,-0.00586zM50.65234,29.55273c-0.56468,-0.01831 -1.11077,0.20305 -1.50333,0.60938c-0.39256,0.40633 -0.59497,0.95972 -0.55721,1.52344c0.28596,5.42238 0.38335,10.61534 0.41602,15.72852c-5.11369,-0.03265 -10.30555,-0.13003 -15.72852,-0.41602c-0.72163,-0.05159 -1.41488,0.29052 -1.81292,0.89466c-0.39803,0.60414 -0.4388,1.37614 -0.10662,2.01884c0.33219,0.64271 0.98554,1.05594 1.7086,1.08064c5.49778,0.28993 10.76743,0.3894 15.95703,0.42187c-0.03161,5.25999 -0.15332,10.4085 -0.43359,15.36523c-0.0406,0.71356 0.30261,1.39456 0.90032,1.78643c0.5977,0.39187 1.35908,0.43506 1.99726,0.11329c0.63818,-0.32176 1.0562,-0.95959 1.09656,-1.67316c0.28425,-5.02703 0.40755,-10.24525 0.43945,-15.57422c5.32833,-0.03193 10.54775,-0.15524 15.57422,-0.43945c0.71357,-0.04036 1.35139,-0.45837 1.67316,-1.09656c0.32176,-0.63818 0.27858,-1.39956 -0.11329,-1.99726c-0.39187,-0.5977 -1.07287,-0.94091 -1.78643,-0.90032c-4.95616,0.28024 -10.10589,0.40196 -15.36523,0.43359c-0.0325,-5.18901 -0.13198,-10.45797 -0.42187,-15.95508c-0.03954,-1.04945 -0.88396,-1.8896 -1.93359,-1.92383zM65.37695,64.80859c-0.41583,-0.0517 -0.8417,0.1438 -1.06445,0.5293c-0.297,0.514 -0.12142,1.17275 0.39258,1.46875c0.514,0.297 1.17175,0.11947 1.46875,-0.39453c0.297,-0.513 0.12142,-1.1698 -0.39258,-1.4668c-0.1285,-0.07425 -0.26569,-0.11948 -0.4043,-0.13672zM67.75391,70.14844c-0.41541,-0.0517 -0.8417,0.1438 -1.06445,0.5293c-0.296,0.513 -0.11942,1.17275 0.39258,1.46875c0.514,0.297 1.17175,0.12142 1.46875,-0.39258c0.297,-0.513 0.12142,-1.17175 -0.39258,-1.46875c-0.12825,-0.07425 -0.26583,-0.11948 -0.4043,-0.13672zM60.9668,72.43164c-0.41583,-0.05147 -0.8417,0.14455 -1.06445,0.5293c-0.297,0.514 -0.12047,1.17175 0.39453,1.46875c0.513,0.297 1.17175,0.11847 1.46875,-0.39453c0.297,-0.513 0.11947,-1.17175 -0.39453,-1.46875c-0.1285,-0.07425 -0.26569,-0.11761 -0.4043,-0.13477z"></path></g></g></g></svg>